<?xml version="1.0" standalone="no"?>
<!DOCTYPE svg PUBLIC "-//W3C//DTD SVG 20010904//EN"
 "http://www.w3.org/TR/2001/REC-SVG-20010904/DTD/svg10.dtd">
<svg version="1.0" xmlns="http://www.w3.org/2000/svg"
 width="260.000000pt" height="260.000000pt" viewBox="0 0 260.000000 260.000000"
 preserveAspectRatio="xMidYMid meet">
<metadata>
Created by potrace 1.14, written by Peter Selinger 2001-2017
</metadata>
<g transform="translate(0.000000,260.000000) scale(0.100000,-0.100000)"
fill="#000000" stroke="none">
<path d="M392 2585 c-9 -11 -10 -20 -2 -34 13 -25 13 -41 -1 -41 -5 0 -7 4 -4
10 3 5 0 7 -9 4 -12 -5 -11 -9 5 -25 19 -19 18 -39 -3 -39 -6 0 -21 11 -34 25
-33 36 -51 32 -64 -16 -15 -53 -10 -62 46 -101 68 -47 114 -88 114 -102 0 -22
25 -46 58 -55 20 -6 30 -6 27 0 -4 5 0 9 7 9 7 0 2 7 -10 16 -17 12 -22 25
-22 60 0 27 6 52 15 60 8 9 15 29 15 45 0 18 4 28 10 24 6 -3 10 -17 10 -30 0
-18 7 -26 24 -31 43 -10 61 -1 64 33 4 38 51 83 87 83 30 0 61 -32 76 -79 7
-20 27 -58 46 -86 24 -36 33 -61 33 -90 0 -41 0 -41 40 -43 48 -3 78 11 90 44
12 30 40 31 68 1 29 -30 30 -89 2 -117 -30 -30 -26 -89 10 -147 17 -26 30 -55
30 -65 0 -30 26 -20 36 14 7 23 18 34 42 42 19 7 41 21 50 33 22 27 54 43 86
43 32 0 41 -15 18 -32 -20 -15 -27 -94 -10 -115 5 -7 7 -16 4 -21 -6 -10 38
-105 46 -97 3 3 11 -2 18 -10 11 -14 10 -24 -10 -63 -32 -67 -60 -151 -60
-183 0 -15 -5 -31 -12 -35 -7 -5 -8 -3 -3 6 6 10 4 11 -6 4 -24 -15 -49 -15
-49 1 0 10 -10 15 -32 15 -30 1 -31 2 -15 14 10 8 18 17 18 20 -3 21 2 27 30
41 16 9 40 26 51 37 20 20 20 22 4 33 -15 12 -15 14 -1 29 15 14 15 16 1 16
-9 0 -16 4 -16 10 0 5 -13 16 -30 25 -16 9 -30 11 -30 6 0 -9 -47 -26 -62 -23
-5 1 -8 -5 -8 -14 0 -9 -10 -24 -22 -35 -24 -19 -19 -23 32 -20 24 2 24 1 6
-14 -11 -8 -28 -15 -37 -15 -10 0 -21 -4 -24 -10 -3 -5 -13 -10 -22 -10 -14 0
-14 2 1 19 16 17 16 18 -8 14 -14 -3 -25 -8 -24 -12 3 -24 -6 -45 -33 -76 -47
-53 -83 -43 -40 12 11 13 18 30 15 36 -5 13 -42 15 -61 4 -8 -5 -14 5 -19 30
-11 60 26 108 64 80 8 -6 12 -6 12 1 0 6 -9 14 -21 17 -20 7 -20 7 -2 22 10 8
12 12 6 8 -7 -3 4 18 25 48 20 30 40 53 45 50 4 -2 6 -1 5 4 -1 4 3 18 10 30
10 19 9 24 -13 41 -15 12 -23 26 -19 35 3 10 -3 20 -16 27 -13 7 -20 8 -16 2
13 -22 -15 -21 -78 3 -98 37 -261 57 -316 40 -16 -5 -19 -1 -18 25 1 17 9 36
18 43 10 7 18 17 19 22 0 6 5 10 10 10 5 0 13 3 17 8 4 4 -1 7 -10 7 -13 0
-16 5 -12 16 7 19 -22 91 -40 98 -8 3 -15 -7 -19 -24 -6 -29 -19 -43 -40 -46
-5 0 -16 -2 -22 -2 -21 -3 -15 -58 6 -73 13 -9 21 -28 23 -53 3 -39 2 -39 -47
-56 -68 -23 -130 -56 -188 -97 -47 -35 -48 -35 -70 -17 -43 38 -47 43 -47 67
0 28 -68 102 -103 113 -12 4 -33 15 -46 25 -13 11 -32 19 -42 19 -17 0 -19 -9
-19 -80 0 -78 1 -80 24 -80 13 0 29 7 36 15 7 8 19 15 27 15 11 0 8 6 -8 18
-24 20 -21 52 5 52 18 0 83 -65 91 -91 4 -11 11 -19 16 -19 5 0 9 -11 9 -25 0
-18 7 -28 24 -35 32 -12 41 -28 26 -45 -10 -13 -15 -11 -34 12 -11 15 -22 31
-22 35 -1 5 -2 13 -3 18 0 6 -11 10 -23 10 -20 -1 -21 -2 -8 -13 8 -7 14 -22
12 -33 -2 -12 4 -38 12 -59 15 -35 14 -38 -10 -77 -37 -59 -70 -152 -83 -237
-14 -88 -15 -91 -47 -91 -13 0 -24 -5 -24 -11 0 -7 11 -9 28 -6 l27 6 15 -94
c10 -64 12 -98 5 -110 -8 -12 -5 -20 12 -33 15 -11 23 -30 25 -57 l3 -40 -44
-2 c-29 -1 -51 -9 -67 -24 -22 -20 -24 -31 -24 -106 0 -49 4 -83 10 -83 6 0
10 -12 10 -26 0 -23 3 -25 31 -19 17 4 43 2 61 -6 39 -16 48 -3 48 77 0 129
15 175 48 142 9 -9 7 -14 -6 -24 -15 -11 -14 -12 11 -10 17 2 27 -2 27 -10 0
-7 13 -21 29 -30 17 -10 28 -21 25 -26 -3 -5 -2 -7 3 -6 4 1 34 -15 67 -36 32
-21 90 -50 130 -64 85 -31 85 -31 63 -43 -14 -8 -17 -25 -17 -98 l0 -87 -57 0
c-49 1 -62 5 -85 28 -14 15 -29 37 -33 48 -3 11 -11 20 -16 20 -19 0 -8 -28
28 -74 27 -34 39 -61 43 -95 5 -43 7 -46 35 -49 66 -5 105 -22 121 -53 8 -17
30 -39 49 -50 50 -30 59 -63 51 -182 -4 -62 -12 -110 -21 -124 -26 -39 -19
-43 73 -43 l87 0 25 52 c23 46 49 67 42 32 -2 -9 6 -14 23 -14 24 0 30 8 26
38 -2 14 15 16 24 2 3 -6 16 -10 29 -10 28 0 46 -18 46 -46 0 -32 30 -38 88
-19 34 11 56 14 69 7 10 -5 43 -10 73 -11 34 -1 59 -8 66 -17 7 -9 30 -14 66
-14 50 0 57 3 103 45 39 37 50 54 54 88 6 39 9 42 39 45 18 2 32 -1 32 -7 0
-6 11 -21 25 -33 20 -17 25 -31 25 -70 0 -38 3 -48 16 -48 14 0 16 8 11 47 -5
51 15 106 56 150 11 12 25 32 31 44 14 28 82 49 160 49 l59 0 -22 19 c-20 18
-21 20 -4 25 10 3 33 20 51 36 26 26 32 38 32 74 0 28 -7 52 -20 69 -11 14
-20 30 -20 36 0 16 35 14 49 -3 6 -7 32 -16 57 -20 25 -3 51 -11 58 -18 8 -7
23 -20 35 -28 24 -17 29 -68 7 -76 -8 -3 -12 -12 -10 -19 3 -7 -4 -19 -15 -27
-12 -8 -18 -18 -15 -21 4 -3 19 3 34 15 87 64 204 30 271 -78 27 -44 38 -174
16 -207 -14 -22 -21 -47 -18 -74 1 -9 19 -13 56 -13 l55 0 0 115 c0 93 -3 115
-14 115 -22 0 -30 19 -15 36 8 10 10 36 6 84 -4 53 -2 71 9 81 20 17 21 364 0
372 -17 7 -58 -21 -51 -34 4 -5 2 -9 -2 -9 -5 0 -8 -17 -7 -38 2 -26 -5 -47
-22 -69 -13 -17 -24 -39 -24 -48 0 -29 -55 -75 -89 -75 -25 0 -32 5 -37 27 -4
16 -20 43 -37 61 -32 33 -27 39 17 22 29 -11 35 2 14 25 -7 7 -26 36 -43 64
-31 53 -54 63 -96 41 -13 -7 -19 -7 -19 0 0 5 -8 10 -17 10 -15 0 -16 -2 -3
-10 13 -8 13 -10 -1 -10 -9 0 -20 -7 -23 -16 -5 -14 -8 -14 -28 0 -12 9 -34
16 -48 17 -17 0 -9 5 25 15 28 7 65 13 83 12 22 -2 37 3 43 14 5 9 35 31 66
49 53 29 71 34 66 18 -1 -3 5 -6 12 -6 11 0 12 4 4 14 -8 9 -8 13 0 13 6 0 11
5 11 11 0 18 93 119 110 119 18 0 49 -33 53 -58 4 -28 17 -42 38 -42 17 0 19
7 19 80 0 87 -7 96 -47 59 -18 -18 -25 -20 -38 -9 -8 7 -11 17 -7 24 4 6 9 88
12 181 l5 170 28 3 c15 2 27 8 27 13 0 6 -4 8 -9 4 -5 -3 -12 -1 -16 5 -7 11
24 70 37 70 4 0 8 34 8 75 0 41 -4 75 -8 75 -5 0 -15 11 -22 25 -16 30 -45 34
-37 6 4 -17 -9 -31 -29 -31 -2 0 -4 21 -4 46 0 27 -4 43 -10 39 -5 -3 -17 10
-27 29 -18 38 -33 45 -52 22 -6 -7 -25 -16 -41 -20 -26 -5 -30 -10 -30 -40 0
-49 -13 -79 -57 -127 -39 -43 -45 -77 -20 -107 9 -11 -10 -13 -104 -10 l-114
3 3 -132 3 -133 51 0 c44 0 49 -2 38 -15 -7 -8 -16 -15 -21 -15 -5 0 -18 -9
-28 -19 -22 -22 -81 -41 -128 -41 -31 0 -32 1 -23 26 6 14 10 33 10 42 -1 13
-6 11 -24 -10 -13 -15 -26 -32 -28 -39 -5 -16 -37 -5 -88 32 -88 64 -118 205
-66 307 64 125 205 167 336 99 l50 -26 26 39 c15 22 30 37 35 35 4 -3 11 0 15
6 4 8 3 9 -4 5 -18 -11 -14 3 7 29 17 22 20 23 40 9 25 -18 51 -12 51 11 0 10
-10 15 -30 15 -16 0 -30 3 -30 7 0 4 22 39 50 79 27 40 50 76 50 81 0 25 -163
100 -252 117 l-37 7 21 37 c12 20 37 54 57 75 31 33 40 37 86 37 36 0 46 3 35
10 -8 5 -30 10 -48 10 -26 0 -33 4 -30 18 2 11 14 18 33 20 43 3 108 24 123
39 19 19 -3 16 -33 -3 -35 -23 -145 -16 -206 14 -25 12 -59 22 -75 22 -18 0
-34 7 -42 20 -9 15 -23 20 -52 20 -22 0 -40 5 -40 10 0 6 -5 10 -11 10 -6 0
-24 11 -41 25 -16 14 -42 25 -58 25 -16 0 -32 5 -35 10 -3 6 -14 10 -23 10
-13 0 -12 -5 8 -23 44 -40 74 -57 102 -57 16 0 28 -4 28 -10 0 -5 8 -10 18
-10 9 0 25 -14 34 -31 10 -17 22 -28 27 -25 5 4 21 2 35 -4 25 -9 26 -12 26
-103 0 -98 -10 -128 -46 -133 -91 -15 -132 -13 -171 6 -41 19 -53 36 -53 70 0
20 -20 31 -47 24 -28 -7 -82 -12 -145 -13 -44 -1 -58 -5 -58 -16 0 -12 14 -15
69 -15 l69 0 46 -52 c25 -29 46 -55 46 -58 0 -3 -26 -18 -58 -35 -34 -18 -88
-61 -136 -109 -74 -75 -79 -79 -92 -61 -8 10 -14 26 -14 36 0 9 -9 28 -20 42
-14 18 -20 40 -20 79 0 62 4 70 47 92 18 9 37 26 43 37 13 24 7 49 -12 49 -7
0 -30 16 -50 36 -29 26 -38 43 -38 67 0 49 13 64 42 48 13 -7 28 -11 34 -10
35 6 67 -6 107 -41 43 -38 49 -40 101 -38 40 2 56 7 56 17 0 8 -3 11 -6 8 -11
-10 -44 12 -62 42 -14 22 -16 47 -14 125 2 69 7 96 15 93 7 -2 13 -13 15 -25
2 -13 8 -19 18 -15 8 3 14 0 14 -6 0 -6 4 -11 9 -11 8 0 -3 62 -21 115 -6 17
-13 42 -15 58 l-5 27 -119 0 c-68 0 -120 -4 -124 -10 -3 -5 -15 -10 -27 -10
-14 0 -18 -5 -14 -15 3 -10 -1 -18 -12 -21 -9 -3 -30 -11 -45 -19 -25 -13 -29
-13 -34 1 -3 9 0 20 8 24 7 5 10 12 6 17 -4 4 -16 2 -26 -4 -13 -8 -23 -7 -42
3 -57 32 -118 10 -119 -43 0 -12 -8 -26 -17 -32 -10 -5 -17 -13 -15 -18 2 -4
-1 -9 -7 -11 -6 -2 -11 1 -11 7 0 19 -29 12 -40 -9 -14 -27 -26 -25 -47 6 -19
29 -27 84 -12 84 5 0 9 -5 9 -11 0 -5 4 -8 9 -4 10 6 11 45 1 45 -3 0 -12 -6
-18 -12 -10 -10 -14 -8 -18 10 l-6 22 -257 0 c-211 -1 -258 -3 -269 -15z m445
-37 c-3 -8 -6 -5 -6 6 -1 11 2 17 5 13 3 -3 4 -12 1 -19z m-373 -44 c8 -22 7
-47 -3 -63 -7 -11 -13 -9 -30 8 -11 11 -18 21 -15 21 4 0 1 7 -6 15 -10 12 -8
16 11 24 33 13 36 13 43 -5z m576 -550 c0 -8 -5 -12 -10 -9 -6 4 -8 11 -5 16
9 14 15 11 15 -7z m-273 -320 c13 -4 20 -11 16 -16 -8 -14 -10 -88 -1 -88 8 0
5 -21 -5 -36 -4 -7 0 -18 9 -25 14 -12 14 -14 -3 -20 -16 -7 -16 -8 0 -8 13
-1 17 -10 17 -42 0 -38 -1 -39 -17 -23 -14 14 -30 16 -99 10 -104 -8 -117 -3
-108 37 4 20 2 32 -7 38 -9 6 -10 12 -4 17 6 4 11 15 13 25 2 12 -4 17 -21 17
-14 0 -30 6 -36 13 -18 23 17 46 67 44 45 -1 62 11 62 46 0 14 9 17 48 17 26
0 57 -3 69 -6z m1626 -100 c3 -3 3 -13 0 -21 -5 -12 -7 -12 -14 -1 -15 23 -4
40 14 22z m-49 -19 c4 -11 -2 -15 -27 -15 l-32 1 25 14 c14 8 26 14 26 15 1 0
4 -7 8 -15z m104 -12 c-10 -2 -26 -2 -35 0 -10 3 -2 5 17 5 19 0 27 -2 18 -5z
m-1897 -30 c-12 -20 -14 -14 -5 12 4 9 9 14 11 11 3 -2 0 -13 -6 -23z m779
-33 c0 -12 -10 -19 -30 -22 -34 -5 -39 7 -12 29 9 8 11 11 3 7 -9 -4 -12 -3
-8 4 10 16 47 2 47 -18z m-478 -200 c49 0 50 -1 34 -19 -9 -10 -32 -27 -51
-37 -34 -18 -35 -18 -55 2 -20 20 -19 54 1 54 5 0 10 17 11 38 l1 37 4 -37 4
-38 51 0z m-167 -80 c-3 -5 -12 -10 -18 -10 -7 0 -6 4 3 10 19 12 23 12 15 0z
m595 -245 c21 4 47 2 57 -4 16 -8 12 -12 -27 -29 -41 -17 -43 -20 -22 -26 12
-4 22 -12 22 -17 0 -5 9 -9 20 -9 21 0 31 -25 27 -69 -1 -13 5 -28 14 -34 13
-8 24 -5 49 16 17 15 37 27 44 27 23 0 62 48 75 90 13 43 22 48 41 25 9 -11 9
-15 1 -15 -7 0 -9 -5 -5 -11 5 -8 8 -8 14 0 5 9 28 1 76 -23 38 -20 74 -36 79
-36 11 -1 65 -82 65 -98 0 -5 7 -12 15 -16 9 -3 15 0 15 9 0 8 -4 15 -10 15
-5 0 -10 11 -10 24 0 31 26 40 91 31 47 -7 57 -13 42 -29 -5 -4 -9 -12 -9 -17
-3 -22 -5 -23 -14 -9 -8 13 -10 13 -10 -1 0 -18 37 -33 46 -18 7 12 54 -20 54
-36 0 -9 -28 -12 -112 -11 l-113 1 -26 53 c-33 69 -44 79 -64 62 -17 -14 -21
-65 -5 -75 15 -9 70 -124 70 -146 0 -17 -3 -18 -22 -8 -18 10 -20 9 -15 -5 4
-10 3 -14 -2 -11 -5 3 -13 0 -17 -6 -5 -9 4 -11 34 -6 50 6 62 -6 29 -28 -32
-21 -248 -18 -255 3 -2 7 5 16 17 19 12 3 21 10 21 16 0 6 -3 7 -7 4 -3 -4
-12 -2 -20 4 -7 6 -13 8 -14 3 -5 -61 -24 -70 -69 -34 -20 16 -42 36 -49 44
-16 19 -49 9 -57 -17 -4 -13 -1 -23 10 -29 9 -5 25 -27 36 -49 19 -37 19 -39
2 -39 -9 0 -28 7 -41 17 -18 12 -53 17 -135 20 -79 3 -107 1 -96 -6 8 -6 52
-11 98 -11 63 0 84 -3 88 -14 3 -8 19 -18 35 -21 15 -4 40 -20 54 -37 21 -25
25 -39 25 -98 0 -64 10 -94 25 -71 3 6 7 36 10 68 2 32 4 61 4 66 1 4 8 7 16
7 15 0 19 -16 16 -52 -1 -10 2 -18 7 -18 12 0 21 36 17 70 -1 14 2 31 8 38 15
20 27 -4 27 -56 0 -40 -5 -49 -57 -101 -35 -34 -76 -64 -104 -74 -25 -10 -55
-29 -67 -42 -19 -22 -30 -25 -84 -24 l-63 0 -39 61 c-22 34 -49 87 -60 120
l-20 59 23 42 c13 24 21 53 19 67 -4 25 -4 25 -24 -7 -20 -35 -41 -39 -36 -7
2 10 8 56 14 102 11 94 4 112 -43 112 -19 0 -29 5 -29 15 0 10 10 15 33 15
l32 0 -44 25 c-24 14 -51 23 -60 20 -9 -3 -28 6 -43 19 l-26 25 -23 -25 c-31
-34 -81 -33 -108 2 -19 24 -28 54 -17 54 16 0 36 -14 36 -26 0 -9 11 -14 30
-14 35 0 37 6 11 29 -18 16 -16 17 47 29 37 7 102 29 145 50 42 21 77 33 77
27 0 -5 8 -15 19 -22 16 -10 20 -8 30 13 6 14 11 35 11 46 0 12 12 34 26 49
l25 26 30 -29 c26 -26 34 -29 69 -23z m-463 -397 c14 -13 23 -33 23 -52 0 -17
9 -44 20 -61 11 -16 20 -39 20 -51 0 -11 9 -29 20 -39 26 -23 25 -29 -5 -43
-19 -9 -25 -9 -25 1 0 8 -3 8 -8 2 -4 -6 -19 -16 -34 -22 -16 -7 -28 -19 -28
-28 0 -21 20 -19 47 7 24 23 40 19 30 -7 -6 -14 -64 -55 -79 -55 -3 0 -8 8
-10 17 -3 14 -8 12 -32 -10 -39 -36 -46 -24 -46 79 0 96 14 147 39 139 13 -4
21 5 31 32 8 21 16 41 18 46 2 4 -1 7 -7 7 -6 0 -11 -8 -11 -19 0 -14 -6 -17
-25 -13 -30 5 -33 22 -5 29 15 4 18 11 13 34 -4 23 -2 29 13 29 10 0 28 -10
41 -22z m1113 -150 c12 -14 16 -24 10 -26 -18 -6 -99 8 -105 19 -22 34 63 41
95 7z"/>
<path d="M727 1624 c-11 -11 5 -34 24 -34 17 0 18 3 9 20 -11 20 -22 25 -33
14z"/>
<path d="M668 1423 c7 -3 16 -2 19 1 4 3 -2 6 -13 5 -11 0 -14 -3 -6 -6z"/>
<path d="M748 1423 c6 -2 18 -2 25 0 6 3 1 5 -13 5 -14 0 -19 -2 -12 -5z"/>
<path d="M1160 901 c0 -6 10 -17 22 -26 28 -19 39 0 12 20 -22 17 -34 19 -34
6z"/>
<path d="M1297 806 c-3 -8 1 -17 9 -20 9 -4 14 1 14 14 0 23 -15 27 -23 6z"/>
<path d="M1671 618 c-1 -10 3 -18 8 -18 5 0 11 -9 14 -20 3 -11 11 -20 17 -20
9 0 9 4 2 13 -10 12 -12 17 -12 38 0 5 -4 8 -9 5 -5 -4 -12 0 -14 6 -3 8 -6 6
-6 -4z"/>
<path d="M1090 600 c0 -5 5 -10 11 -10 5 0 7 5 4 10 -3 6 -8 10 -11 10 -2 0
-4 -4 -4 -10z"/>
<path d="M1570 506 c0 -9 20 -14 65 -15 38 -1 65 2 65 8 0 5 -17 9 -37 7 -21
-1 -50 1 -65 5 -20 5 -28 4 -28 -5z"/>
<path d="M800 400 c0 -14 42 -92 47 -86 2 2 -5 22 -16 44 -15 30 -17 42 -8 45
7 3 5 6 -5 6 -10 1 -18 -3 -18 -9z"/>
<path d="M2330 2577 c0 -30 24 -62 38 -53 7 4 12 23 12 42 0 30 -3 34 -25 34
-19 0 -25 -5 -25 -23z"/>
<path d="M18 2572 c-14 -3 -18 -13 -18 -44 l0 -40 48 4 c47 3 62 -2 154 -49
33 -17 38 -16 38 2 0 16 -39 36 -52 29 -4 -3 -16 3 -28 13 -11 10 -25 19 -30
19 -6 1 -14 2 -20 3 -5 0 -24 16 -42 34 -19 19 -40 32 -50 29z"/>
<path d="M693 2433 c-15 -6 -17 -43 -3 -43 6 0 10 5 10 10 0 6 6 10 13 9 26
-3 37 2 37 16 0 15 -31 19 -57 8z"/>
<path d="M2376 2371 c-9 -10 -14 -25 -10 -34 5 -15 9 -15 35 -2 17 9 26 21 23
29 -9 23 -31 26 -48 7z"/>
<path d="M752 2373 c2 -5 10 -21 17 -38 30 -66 35 -75 41 -75 4 0 5 11 2 25
-2 14 -8 23 -12 20 -5 -3 -6 4 -3 15 4 14 0 20 -11 20 -9 0 -15 3 -15 8 3 18
-2 32 -12 32 -5 0 -9 -3 -7 -7z"/>
<path d="M2458 2334 c-39 -12 -6 -45 45 -47 44 -1 104 23 85 34 -19 10 -108
19 -130 13z"/>
<path d="M550 2315 c0 -8 7 -15 15 -15 8 0 15 4 15 9 0 5 -7 11 -15 15 -9 3
-15 0 -15 -9z"/>
<path d="M1390 2210 c0 -13 7 -20 20 -20 11 0 20 4 20 10 0 5 -9 14 -20 20
-17 9 -20 8 -20 -10z"/>
<path d="M842 2211 c-8 -4 -5 -11 8 -19 16 -10 20 -10 20 2 0 19 -13 27 -28
17z"/>
<path d="M1020 2199 c0 -9 9 -24 20 -34 20 -18 20 -17 19 11 0 16 -3 23 -6 16
-4 -10 -8 -9 -19 5 -11 15 -13 16 -14 2z"/>
<path d="M1953 2145 c0 -22 2 -30 4 -17 2 12 2 30 0 40 -3 9 -5 -1 -4 -23z"/>
<path d="M2275 2160 c3 -5 8 -10 11 -10 2 0 4 5 4 10 0 6 -5 10 -11 10 -5 0
-7 -4 -4 -10z"/>
<path d="M1730 2125 c0 -8 7 -15 15 -15 9 0 12 6 9 15 -4 8 -10 15 -15 15 -5
0 -9 -7 -9 -15z"/>
<path d="M2300 2132 c0 -14 35 -42 52 -42 9 0 21 -7 28 -15 13 -16 50 -21 50
-7 0 14 -23 32 -40 32 -21 0 -70 23 -70 33 0 4 -4 7 -10 7 -5 0 -10 -4 -10 -8z"/>
<path d="M1922 2085 c0 -16 2 -22 5 -12 2 9 2 23 0 30 -3 6 -5 -1 -5 -18z"/>
<path d="M1812 2073 c-19 -8 -3 -23 24 -23 23 0 24 2 10 15 -8 8 -16 15 -18
14 -2 0 -9 -3 -16 -6z"/>
<path d="M1940 2064 c0 -8 5 -12 10 -9 6 3 10 10 10 16 0 5 -4 9 -10 9 -5 0
-10 -7 -10 -16z"/>
<path d="M2457 2013 c1 -32 2 -68 2 -81 1 -20 25 -41 36 -30 3 2 7 22 10 43 3
30 -1 49 -21 82 -13 24 -26 43 -27 43 -1 0 -1 -26 0 -57z"/>
<path d="M20 1920 c0 -6 25 -10 58 -9 41 0 51 3 37 9 -28 12 -95 12 -95 0z"/>
<path d="M2490 1846 c0 -16 26 -46 40 -46 20 0 20 22 1 27 -12 3 -21 12 -21
19 0 8 -4 14 -10 14 -5 0 -10 -6 -10 -14z"/>
<path d="M2526 1777 c-23 -17 -17 -39 12 -44 23 -3 31 20 12 32 -6 4 -8 11 -5
16 8 13 2 11 -19 -4z"/>
<path d="M2245 1672 c-12 -9 -19 -42 -8 -42 18 1 30 16 24 32 -3 10 -11 14
-16 10z"/>
<path d="M2177 1584 c3 -8 11 -14 19 -14 21 0 17 17 -5 23 -14 3 -18 1 -14 -9z"/>
<path d="M1293 1552 c-13 -2 -23 -9 -23 -17 0 -14 36 -9 46 7 8 12 3 14 -23
10z"/>
<path d="M1791 1501 c-17 -11 12 -39 47 -47 70 -14 77 -15 62 -4 -8 5 -11 10
-5 10 5 0 -2 8 -15 17 -14 10 -27 17 -30 17 -3 -1 -14 2 -26 6 -11 5 -26 5
-33 1z"/>
<path d="M1920 1431 c0 -6 5 -13 10 -16 6 -3 10 -43 10 -89 0 -67 3 -83 15
-83 22 0 20 115 -2 162 -16 33 -33 46 -33 26z"/>
<path d="M70 1110 c-12 -7 -12 -12 -3 -21 10 -10 14 -9 19 5 8 22 2 27 -16 16z"/>
<path d="M2523 889 c-15 -15 25 -49 56 -49 17 0 21 6 21 30 0 27 -3 30 -33 30
-18 0 -38 -5 -44 -11z"/>
<path d="M226 746 c4 -11 45 -36 59 -36 16 0 0 22 -25 35 -36 18 -41 19 -34 1z"/>
<path d="M2480 700 c0 -5 7 -7 15 -4 8 4 15 8 15 10 0 2 -7 4 -15 4 -8 0 -15
-4 -15 -10z"/>
<path d="M480 635 c-14 -16 -5 -35 16 -35 15 0 20 35 5 44 -5 3 -14 -1 -21 -9z"/>
<path d="M2423 616 c-4 -8 -16 -15 -26 -17 -28 -6 -25 -24 4 -27 22 -3 29 2
37 27 11 31 0 43 -15 17z"/>
<path d="M2084 491 c5 -8 56 -3 56 5 0 2 -14 4 -31 4 -16 0 -28 -4 -25 -9z"/>
<path d="M2180 460 c0 -6 -6 -8 -12 -4 -10 6 -10 4 0 -7 9 -9 15 -10 23 -2 8
8 8 13 0 17 -6 4 -11 2 -11 -4z"/>
<path d="M0 386 c0 -63 0 -64 32 -70 36 -7 48 4 48 47 0 28 -47 87 -69 87 -7
0 -11 -25 -11 -64z"/>
<path d="M2012 309 c2 -7 10 -15 17 -17 8 -3 12 1 9 9 -2 7 -10 15 -17 17 -8
3 -12 -1 -9 -9z"/>
<path d="M2107 270 c-7 -30 -31 -41 -40 -17 -2 6 -8 -8 -11 -33 -5 -31 -3 -56
8 -81 11 -25 13 -53 9 -88 l-6 -51 47 0 46 0 0 36 c0 19 -10 58 -21 85 -20 45
-20 54 -9 89 13 38 7 90 -9 90 -5 0 -11 -13 -14 -30z"/>
<path d="M60 279 c0 -37 38 -124 77 -177 29 -39 40 -37 19 4 -24 46 -54 116
-63 148 -9 30 -33 48 -33 25z"/>
<path d="M1560 112 c0 -26 35 -45 50 -27 18 21 5 45 -25 45 -17 0 -25 -5 -25
-18z"/>
<path d="M200 52 c0 -10 45 -32 63 -32 17 1 -32 40 -49 40 -8 0 -14 -4 -14 -8z"/>
<path d="M1535 40 c-10 -11 -15 -20 -11 -20 11 0 39 30 34 36 -3 2 -13 -5 -23
-16z"/>
<path d="M986 41 c9 -9 34 -9 34 -1 0 5 -9 8 -20 7 -10 -1 -17 -3 -14 -6z"/>
</g>
</svg>
